<mxfile host="Electron" agent="Mozilla/5.0 (Windows NT 10.0; Win64; x64) AppleWebKit/537.36 (KHTML, like Gecko) draw.io/26.0.4 Chrome/128.0.6613.186 Electron/32.2.5 Safari/537.36" version="26.0.4">
  <diagram name="Page-1" id="gJzNKClEKYODoCD2Kje8">
    <mxGraphModel dx="2173" dy="932" grid="1" gridSize="10" guides="1" tooltips="1" connect="1" arrows="1" fold="1" page="1" pageScale="1" pageWidth="850" pageHeight="1100" math="0" shadow="0">
      <root>
        <mxCell id="0" />
        <mxCell id="1" parent="0" />
        <mxCell id="RL5C8ATkSytU0IPgAak6-1" value="VPC" style="points=[[0,0],[0.25,0],[0.5,0],[0.75,0],[1,0],[1,0.25],[1,0.5],[1,0.75],[1,1],[0.75,1],[0.5,1],[0.25,1],[0,1],[0,0.75],[0,0.5],[0,0.25]];outlineConnect=0;gradientColor=none;html=1;whiteSpace=wrap;fontSize=12;fontStyle=0;container=1;pointerEvents=0;collapsible=0;recursiveResize=0;shape=mxgraph.aws4.group;grIcon=mxgraph.aws4.group_vpc2;strokeColor=#8C4FFF;fillColor=default;verticalAlign=top;align=left;spacingLeft=30;fontColor=#AAB7B8;dashed=0;" vertex="1" parent="1">
          <mxGeometry x="-100" y="320" width="1060" height="520" as="geometry" />
        </mxCell>
        <mxCell id="RL5C8ATkSytU0IPgAak6-2" value="Public subnet" style="points=[[0,0],[0.25,0],[0.5,0],[0.75,0],[1,0],[1,0.25],[1,0.5],[1,0.75],[1,1],[0.75,1],[0.5,1],[0.25,1],[0,1],[0,0.75],[0,0.5],[0,0.25]];outlineConnect=0;gradientColor=none;html=1;whiteSpace=wrap;fontSize=12;fontStyle=0;container=1;pointerEvents=0;collapsible=0;recursiveResize=0;shape=mxgraph.aws4.group;grIcon=mxgraph.aws4.group_security_group;grStroke=0;strokeColor=#7AA116;fillColor=#313131;verticalAlign=top;align=left;spacingLeft=30;fontColor=#248814;dashed=0;" vertex="1" parent="RL5C8ATkSytU0IPgAak6-1">
          <mxGeometry x="102" y="27.5" width="188" height="462.5" as="geometry" />
        </mxCell>
        <mxCell id="RL5C8ATkSytU0IPgAak6-4" value="Database&amp;nbsp;&lt;span style=&quot;background-color: transparent; color: light-dark(rgb(20, 126, 186), rgb(69, 160, 212));&quot;&gt;subnet&lt;/span&gt;" style="points=[[0,0],[0.25,0],[0.5,0],[0.75,0],[1,0],[1,0.25],[1,0.5],[1,0.75],[1,1],[0.75,1],[0.5,1],[0.25,1],[0,1],[0,0.75],[0,0.5],[0,0.25]];outlineConnect=0;gradientColor=none;html=1;whiteSpace=wrap;fontSize=12;fontStyle=0;container=1;pointerEvents=0;collapsible=0;recursiveResize=0;shape=mxgraph.aws4.group;grIcon=mxgraph.aws4.group_security_group;grStroke=0;strokeColor=#00A4A6;fillColor=#202020;verticalAlign=top;align=left;spacingLeft=30;fontColor=#147EBA;dashed=0;" vertex="1" parent="RL5C8ATkSytU0IPgAak6-1">
          <mxGeometry x="846" y="25" width="180" height="455" as="geometry" />
        </mxCell>
        <mxCell id="RL5C8ATkSytU0IPgAak6-9" value="MongoDB" style="rounded=1;whiteSpace=wrap;html=1;fillColor=#647687;strokeColor=#314354;fontColor=#ffffff;" vertex="1" parent="RL5C8ATkSytU0IPgAak6-4">
          <mxGeometry x="30" y="45" width="120" height="60" as="geometry" />
        </mxCell>
        <mxCell id="RL5C8ATkSytU0IPgAak6-15" value="Redis" style="rounded=1;whiteSpace=wrap;html=1;fillColor=#e51400;fontColor=#ffffff;strokeColor=#B20000;" vertex="1" parent="RL5C8ATkSytU0IPgAak6-4">
          <mxGeometry x="30" y="156" width="120" height="60" as="geometry" />
        </mxCell>
        <mxCell id="RL5C8ATkSytU0IPgAak6-16" value="MySQL" style="rounded=1;whiteSpace=wrap;html=1;fillColor=#008a00;fontColor=#ffffff;strokeColor=#005700;" vertex="1" parent="RL5C8ATkSytU0IPgAak6-4">
          <mxGeometry x="30" y="290" width="120" height="60" as="geometry" />
        </mxCell>
        <mxCell id="RL5C8ATkSytU0IPgAak6-17" value="RabbitMQ" style="rounded=1;whiteSpace=wrap;html=1;" vertex="1" parent="RL5C8ATkSytU0IPgAak6-4">
          <mxGeometry x="30" y="374" width="120" height="60" as="geometry" />
        </mxCell>
        <mxCell id="RL5C8ATkSytU0IPgAak6-3" value="Private subnet" style="points=[[0,0],[0.25,0],[0.5,0],[0.75,0],[1,0],[1,0.25],[1,0.5],[1,0.75],[1,1],[0.75,1],[0.5,1],[0.25,1],[0,1],[0,0.75],[0,0.5],[0,0.25]];outlineConnect=0;gradientColor=none;html=1;whiteSpace=wrap;fontSize=12;fontStyle=0;container=1;pointerEvents=0;collapsible=0;recursiveResize=0;shape=mxgraph.aws4.group;grIcon=mxgraph.aws4.group_security_group;grStroke=0;strokeColor=#00A4A6;fillColor=#202020;verticalAlign=top;align=left;spacingLeft=30;fontColor=#147EBA;dashed=0;" vertex="1" parent="RL5C8ATkSytU0IPgAak6-1">
          <mxGeometry x="459" y="25" width="321" height="455" as="geometry" />
        </mxCell>
        <mxCell id="RL5C8ATkSytU0IPgAak6-34" value="Auto Scaling group" style="points=[[0,0],[0.25,0],[0.5,0],[0.75,0],[1,0],[1,0.25],[1,0.5],[1,0.75],[1,1],[0.75,1],[0.5,1],[0.25,1],[0,1],[0,0.75],[0,0.5],[0,0.25]];outlineConnect=0;gradientColor=none;html=1;whiteSpace=wrap;fontSize=12;fontStyle=0;container=1;pointerEvents=0;collapsible=0;recursiveResize=0;shape=mxgraph.aws4.groupCenter;grIcon=mxgraph.aws4.group_auto_scaling_group;grStroke=1;strokeColor=#D86613;fillColor=none;verticalAlign=top;align=center;fontColor=#D86613;dashed=1;spacingTop=25;" vertex="1" parent="RL5C8ATkSytU0IPgAak6-3">
          <mxGeometry x="21" y="35" width="259" height="105" as="geometry" />
        </mxCell>
        <mxCell id="RL5C8ATkSytU0IPgAak6-5" value="" style="sketch=0;outlineConnect=0;fontColor=#232F3E;gradientColor=none;fillColor=#8C4FFF;strokeColor=none;dashed=0;verticalLabelPosition=bottom;verticalAlign=top;align=center;html=1;fontSize=12;fontStyle=0;aspect=fixed;pointerEvents=1;shape=mxgraph.aws4.application_load_balancer;" vertex="1" parent="RL5C8ATkSytU0IPgAak6-1">
          <mxGeometry x="350" y="170" width="78" height="78" as="geometry" />
        </mxCell>
        <mxCell id="RL5C8ATkSytU0IPgAak6-38" style="edgeStyle=orthogonalEdgeStyle;rounded=0;orthogonalLoop=1;jettySize=auto;html=1;entryX=0;entryY=0.5;entryDx=0;entryDy=0;flowAnimation=1;" edge="1" parent="1" source="RL5C8ATkSytU0IPgAak6-35" target="RL5C8ATkSytU0IPgAak6-37">
          <mxGeometry relative="1" as="geometry" />
        </mxCell>
        <mxCell id="RL5C8ATkSytU0IPgAak6-35" value="A" style="sketch=0;outlineConnect=0;fontColor=#232F3E;gradientColor=none;fillColor=#8C4FFF;strokeColor=none;dashed=0;verticalLabelPosition=bottom;verticalAlign=top;align=center;html=1;fontSize=12;fontStyle=0;aspect=fixed;pointerEvents=1;shape=mxgraph.aws4.application_load_balancer;" vertex="1" parent="1">
          <mxGeometry x="-760" y="180" width="78" height="78" as="geometry" />
        </mxCell>
        <mxCell id="RL5C8ATkSytU0IPgAak6-36" value="" style="image;aspect=fixed;perimeter=ellipsePerimeter;html=1;align=center;shadow=0;dashed=0;fontColor=#4277BB;labelBackgroundColor=default;fontSize=12;spacingTop=3;image=img/lib/ibm/vpc/Rules.svg;" vertex="1" parent="1">
          <mxGeometry x="-455" y="189" width="60" height="60" as="geometry" />
        </mxCell>
        <mxCell id="RL5C8ATkSytU0IPgAak6-39" style="edgeStyle=orthogonalEdgeStyle;rounded=0;orthogonalLoop=1;jettySize=auto;html=1;flowAnimation=1;" edge="1" parent="1" source="RL5C8ATkSytU0IPgAak6-37">
          <mxGeometry relative="1" as="geometry">
            <mxPoint x="-460" y="219" as="targetPoint" />
          </mxGeometry>
        </mxCell>
        <mxCell id="RL5C8ATkSytU0IPgAak6-37" value="" style="image;aspect=fixed;perimeter=ellipsePerimeter;html=1;align=center;shadow=0;dashed=0;fontColor=#4277BB;labelBackgroundColor=default;fontSize=12;spacingTop=3;image=img/lib/ibm/blockchain/event_listener.svg;" vertex="1" parent="1">
          <mxGeometry x="-610" y="189" width="60" height="60" as="geometry" />
        </mxCell>
        <mxCell id="RL5C8ATkSytU0IPgAak6-40" value="Target-Group" style="verticalAlign=top;align=left;shape=cube;size=10;direction=south;fontStyle=0;html=1;boundedLbl=1;spacingLeft=5;whiteSpace=wrap;" vertex="1" parent="1">
          <mxGeometry x="-320" y="125" width="190" height="180" as="geometry" />
        </mxCell>
        <mxCell id="RL5C8ATkSytU0IPgAak6-42" value="Amazon EC2" style="sketch=0;outlineConnect=0;fontColor=#232F3E;gradientColor=none;strokeColor=#ffffff;fillColor=#232F3E;dashed=0;verticalLabelPosition=middle;verticalAlign=bottom;align=center;html=1;whiteSpace=wrap;fontSize=10;fontStyle=1;spacing=3;shape=mxgraph.aws4.productIcon;prIcon=mxgraph.aws4.ec2;" vertex="1" parent="1">
          <mxGeometry x="-300" y="176" width="70" height="90" as="geometry" />
        </mxCell>
        <mxCell id="RL5C8ATkSytU0IPgAak6-43" value="Amazon EC2" style="sketch=0;outlineConnect=0;fontColor=#232F3E;gradientColor=none;strokeColor=#ffffff;fillColor=#232F3E;dashed=0;verticalLabelPosition=middle;verticalAlign=bottom;align=center;html=1;whiteSpace=wrap;fontSize=10;fontStyle=1;spacing=3;shape=mxgraph.aws4.productIcon;prIcon=mxgraph.aws4.ec2;" vertex="1" parent="1">
          <mxGeometry x="-210" y="176" width="70" height="90" as="geometry" />
        </mxCell>
        <mxCell id="RL5C8ATkSytU0IPgAak6-44" style="edgeStyle=orthogonalEdgeStyle;rounded=0;orthogonalLoop=1;jettySize=auto;html=1;entryX=0;entryY=0;entryDx=95;entryDy=190;entryPerimeter=0;flowAnimation=1;" edge="1" parent="1" source="RL5C8ATkSytU0IPgAak6-36" target="RL5C8ATkSytU0IPgAak6-40">
          <mxGeometry relative="1" as="geometry" />
        </mxCell>
        <mxCell id="RL5C8ATkSytU0IPgAak6-45" value="ALB" style="text;html=1;align=center;verticalAlign=middle;whiteSpace=wrap;rounded=0;" vertex="1" parent="1">
          <mxGeometry x="-806" y="236" width="60" height="30" as="geometry" />
        </mxCell>
        <mxCell id="RL5C8ATkSytU0IPgAak6-46" value="Listener" style="text;html=1;align=center;verticalAlign=middle;whiteSpace=wrap;rounded=0;" vertex="1" parent="1">
          <mxGeometry x="-610" y="258" width="60" height="30" as="geometry" />
        </mxCell>
        <mxCell id="RL5C8ATkSytU0IPgAak6-47" value="Rule" style="text;html=1;align=center;verticalAlign=middle;whiteSpace=wrap;rounded=0;" vertex="1" parent="1">
          <mxGeometry x="-460" y="258" width="60" height="30" as="geometry" />
        </mxCell>
        <mxCell id="RL5C8ATkSytU0IPgAak6-48" value="" style="points=[[0.35,0,0],[0.98,0.51,0],[1,0.71,0],[0.67,1,0],[0,0.795,0],[0,0.65,0]];verticalLabelPosition=bottom;sketch=0;html=1;verticalAlign=top;aspect=fixed;align=center;pointerEvents=1;shape=mxgraph.cisco19.user;fillColor=#005073;strokeColor=none;" vertex="1" parent="1">
          <mxGeometry x="-761" y="470" width="80" height="80" as="geometry" />
        </mxCell>
        <mxCell id="RL5C8ATkSytU0IPgAak6-51" style="edgeStyle=orthogonalEdgeStyle;rounded=0;orthogonalLoop=1;jettySize=auto;html=1;flowAnimation=1;" edge="1" parent="1" source="RL5C8ATkSytU0IPgAak6-49" target="RL5C8ATkSytU0IPgAak6-35">
          <mxGeometry relative="1" as="geometry" />
        </mxCell>
        <mxCell id="RL5C8ATkSytU0IPgAak6-49" value="" style="sketch=0;points=[[0,0,0],[0.25,0,0],[0.5,0,0],[0.75,0,0],[1,0,0],[0,1,0],[0.25,1,0],[0.5,1,0],[0.75,1,0],[1,1,0],[0,0.25,0],[0,0.5,0],[0,0.75,0],[1,0.25,0],[1,0.5,0],[1,0.75,0]];outlineConnect=0;fontColor=#232F3E;fillColor=#8C4FFF;strokeColor=#ffffff;dashed=0;verticalLabelPosition=bottom;verticalAlign=top;align=center;html=1;fontSize=12;fontStyle=0;aspect=fixed;shape=mxgraph.aws4.resourceIcon;resIcon=mxgraph.aws4.route_53;" vertex="1" parent="1">
          <mxGeometry x="-746" y="340" width="50" height="50" as="geometry" />
        </mxCell>
        <mxCell id="RL5C8ATkSytU0IPgAak6-50" style="edgeStyle=orthogonalEdgeStyle;rounded=0;orthogonalLoop=1;jettySize=auto;html=1;entryX=0.5;entryY=1;entryDx=0;entryDy=0;entryPerimeter=0;flowAnimation=1;" edge="1" parent="1" source="RL5C8ATkSytU0IPgAak6-48" target="RL5C8ATkSytU0IPgAak6-49">
          <mxGeometry relative="1" as="geometry" />
        </mxCell>
      </root>
    </mxGraphModel>
  </diagram>
</mxfile>
